<svg width="56" height="54" viewBox="0 0 56 54" xmlns="http://www.w3.org/2000/svg"><path d="M26.34 5.033C26.65 4.397 27.294 4 28.002 4c.708 0 1.355.397 1.668 1.033l5.972 12.07c.274.544.795.922 1.4 1.012l13.37 1.935c.7.1 1.28.59 1.498 1.26.217.67.035 1.407-.47 1.9l-9.668 9.394c-.44.423-.637 1.037-.536 1.637l2.28 13.27c.12.695-.168 1.395-.74 1.815-.57.412-1.328.468-1.956.14l-11.953-6.263c-.54-.288-1.188-.288-1.73 0L15.18 49.46c-.623.333-1.38.277-1.957-.135-.57-.42-.855-1.12-.738-1.816l2.28-13.27c.105-.6-.097-1.213-.53-1.636L4.56 23.21c-.505-.493-.687-1.23-.47-1.9.218-.67.8-1.16 1.502-1.26l13.365-1.935c.606-.09 1.133-.468 1.4-1.013l5.982-12.07z" stroke="#FFF" stroke-width="7" fill="none" fill-rule="evenodd" stroke-linecap="round" stroke-linejoin="round"/></svg>
