<svg width="45" height="45" viewBox="0 0 45 45" xmlns="http://www.w3.org/2000/svg"><path d="M42.188 19.688H36.28c-.36-1.76-1.06-3.435-2.058-4.93l4.19-4.19c1.067-1.105 1.052-2.86-.033-3.944-1.086-1.085-2.84-1.1-3.944-.034l-4.19 4.19c-1.497-.998-3.172-1.698-4.933-2.06V2.81C25.313 1.26 24.052 0 22.5 0c-1.553 0-2.813 1.26-2.813 2.813v5.906c-1.76.36-3.434 1.06-4.93 2.058l-4.19-4.19c-1.1-1.1-2.88-1.1-3.98 0-1.097 1.1-1.096 2.88.003 3.98l4.19 4.19c-.998 1.495-1.698 3.17-2.06 4.93H2.81C1.26 19.688 0 20.948 0 22.5c0 1.553 1.26 2.813 2.813 2.813h5.906c.362 1.77 1.066 3.455 2.072 4.958-.04.038-.09.05-.127.085l-4.078 4.078c-.73.707-1.024 1.752-.767 2.736.257.982 1.025 1.75 2.01 2.007.982.258 2.028-.036 2.734-.767l4.078-4.078c.036-.036.05-.087.084-.126 1.504 1.006 3.19 1.71 4.96 2.075l.002 5.907c0 1.554 1.26 2.813 2.812 2.813 1.553 0 2.813-1.26 2.813-2.813v-5.906c1.76-.36 3.434-1.06 4.93-2.058l4.19 4.19c1.104 1.067 2.858 1.052 3.943-.033 1.085-1.086 1.1-2.84.034-3.944l-4.19-4.19c.998-1.497 1.698-3.172 2.06-4.933h5.907c1.554 0 2.813-1.26 2.813-2.813 0-1.553-1.26-2.813-2.813-2.813zM14.06 22.5c0-4.66 3.778-8.438 8.438-8.438s8.438 3.778 8.438 8.438-3.778 8.438-8.438 8.438-8.438-3.778-8.438-8.438z" fill-rule="nonzero" fill="#FFF"/></svg>
