<svg width="59" height="60" viewBox="0 0 59 60" xmlns="http://www.w3.org/2000/svg"><g stroke="#FFF" stroke-width="2.7" fill="#FFF" fill-rule="evenodd" stroke-linecap="round" stroke-linejoin="round"><path d="M55.038 54.61H3.916C2.842 54.61 2 55.346 2 56.2c0 .857.89 1.595 1.916 1.595h51.17c1.075 0 1.914-.738 1.914-1.595 0-.855-.887-1.593-1.962-1.593zM2.046 36.673L2 46.183c0 .536.19 1.072.57 1.463.378.39.85.586 1.372.586l9.184-.048c.52 0 .994-.195 1.373-.585l31.717-32.677c.758-.78.758-2.048 0-2.877l-9.09-9.46c-.758-.78-1.987-.78-2.792 0L27.992 9.17 2.615 35.26c-.33.39-.57.877-.57 1.413zm33.71-29.796l6.39 6.584-3.597 3.706-6.392-6.584 3.597-3.705zM5.975 37.552l23.387-24.09 6.392 6.583-23.387 24.04-6.438.05.046-6.583z"/></g></svg>
