<svg width="38" height="19" viewBox="0 0 38 19" xmlns="http://www.w3.org/2000/svg"><path d="M29.47 19c-3.95 0-6.682-4.75-10.47-4.75-3.788 0-6.754 4.75-10.47 4.75C3.66 19 .06 14.384 0 6.478-.034 1.568 1.427.002 7.756.002c6.33 0 8.18 2.59 11.245 2.59C22.066 2.59 23.918 0 30.245 0c6.327 0 7.79 1.567 7.754 6.476C37.94 14.384 34.34 19 29.47 19zM10.185 6.044C6.513 6.204 5 8.394 5 8.936 5 9.476 7.434 11 9.814 11S15 10.128 15 9.35c-.502-2.188-2.595-3.625-4.814-3.306zm16.63 0c-2.22-.32-4.314 1.117-4.816 3.305 0 .778 2.804 1.65 5.186 1.65S32 9.476 32 8.936s-1.513-2.732-5.186-2.89h.002z" fill-rule="nonzero" fill="#FFF"/></svg>
