<svg width="40" height="40" viewBox="0 0 40 40" xmlns="http://www.w3.org/2000/svg"><path d="M31.875 22.5c-1.027-.02-1.855-.848-1.875-1.875V12.5c0-1.38-1.12-2.5-2.5-2.5h-8.125c-1.027-.02-1.855-.848-1.875-1.875C17.5 6.25 20 6.178 20 3.75 20 1.588 17.75 0 15 0s-5 1.588-5 3.75c0 2.428 2.5 2.5 2.5 4.375-.02 1.027-.848 1.855-1.875 1.875H2.5C1.12 10 0 11.12 0 12.5v5.625C.02 19.152.848 19.98 1.875 20c1.875 0 1.948-2.5 4.375-2.5 2.162 0 3.75 2.25 3.75 5s-1.588 5-3.75 5c-2.427 0-2.5-2.5-4.375-2.5C.848 25.02.02 25.848 0 26.875V37.5C0 38.88 1.12 40 2.5 40h8.125c1.027-.02 1.855-.848 1.875-1.875 0-1.875-2.5-1.947-2.5-4.375 0-2.162 5-3.75 5-3.75s5 1.588 5 3.75c0 2.428-2.5 2.5-2.5 4.375.02 1.027.848 1.855 1.875 1.875H27.5c1.38 0 2.5-1.12 2.5-2.5v-8.125c.02-1.027.848-1.855 1.875-1.875 1.875 0 1.947 2.5 4.375 2.5 2.162 0 3.75-2.25 3.75-5s-1.588-5-3.75-5c-2.428 0-2.5 2.5-4.375 2.5z" fill-rule="nonzero" fill="#FFF"/></svg>
