<svg width="28" height="32" viewBox="0 0 28 32" xmlns="http://www.w3.org/2000/svg"><g fill="#FFF" fill-rule="evenodd"><path d="M14.174.112v2.895l11.07 1.77c0 12.024-.46 14.647-3.28 19.04-2.818 4.394-7.79 5.28-7.79 5.28V32l.465-.083c.25-.045 6.18-1.155 9.616-6.512 3.374-5.257 3.74-8.825 3.74-20.627V4.14c0-1.044-.733-1.934-1.728-2.093L14.174.112zM0 4.14v.638c0 11.802.372 15.37 3.788 20.627 3.48 5.357 9.485 6.467 9.74 6.512l.47.083v-2.903s-5.034-.885-7.89-5.28c-2.855-4.393-3.32-7.016-3.32-19.04l11.21-1.77V.112L1.752 2.047C.744 2.207 0 3.097 0 4.14"/><path d="M14 5L4 6.468c.036 10.124.527 12.388 3.172 16.17C9.325 25.716 12.96 26.758 14 27V5z"/></g></svg>
