<svg width="78" height="44" viewBox="0 0 78 44" xmlns="http://www.w3.org/2000/svg"><g stroke-width="3" stroke="#FFF" fill="#FFF" fill-rule="evenodd"><path d="M20.478 17.8c-2.04-2.04-5.38-2.04-7.422 0s-2.042 5.38 0 7.422c2.04 2.042 5.38 2.042 7.422 0 2.04-2.04 2.04-5.38 0-7.422zm-5.567 5.567c-1.02-1.02-1.02-2.692 0-3.712s2.692-1.02 3.713 0c1.02 1.02 1.02 2.69 0 3.712-1.02 1.02-2.692 1.02-3.712 0zM18.78 10.226c.23.695.927 1.113 1.62.883.695-.23 1.528-.322 2.5-.274 2.224.004 4.308.703 6.025 2.142.556.464 1.39.373 1.85-.182.417-.51.37-1.296-.095-1.76l-.092-.092c-2.226-1.764-4.82-2.695-7.692-2.7-1.204-.003-2.27.134-3.24.456-.695.045-1.064.785-.877 1.526z"/><path d="M7.916 35.636c7.82 7.82 20.563 7.874 28.317.12 1.786-1.786 3.145-3.81 4.127-6.023l26.287.064c1.416.006 2.83-.554 3.77-1.494l5.497-5.498c.517-.517.514-1.367-.007-1.888l-5.546-5.545c-1.04-1.043-2.413-1.568-3.78-1.527l-5.003-.02c-.284-.002-.472.092-.66.186l-2.636 1.594-2.65-1.616c-.236-.143-.472-.19-.66-.192l-2.643-.01c-.283-.002-.52.044-.708.232l-1.224.844-1.23-.854c-.237-.143-.473-.19-.71-.24l-7.928-.033c-.954-2.27-2.426-4.4-4.274-6.248-7.82-7.82-20.563-7.875-28.317-.12-7.754 7.753-7.84 20.448-.02 28.27zM47.902 16.41l1.656 1.092c.473.285 1.04.288 1.51.006l1.553-1.08 1.888.01 3.076 1.853c.426.24.945.288 1.416.007l3.06-1.828 4.72.02c.896-.044 1.51.383 1.843.715l4.55 4.55-4.56 4.56c-.47.468-1.175.702-1.883.745l-25.437.034c.93-3.49.96-7.216 0-10.713l6.61.03zm-13.67-7.09c4.977 4.976 6.33 12.155 4.043 18.328-.093.188-.14.33-.234.517-.84 2.073-2.106 4.003-3.75 5.648-6.72 6.72-17.764 6.672-24.54-.105-6.78-6.777-6.827-17.82-.106-24.54 6.768-6.674 17.81-6.626 24.59.152z"/></g></svg>
