<svg width="45" height="42" viewBox="0 0 45 42" xmlns="http://www.w3.org/2000/svg"><path d="M11.264 27.95c-2.496.005-4.688 1.648-5.38 4.032 0 .028-.04.042-.05.07-1.02 3.18-1.985 5.91-4.953 7.207l-.063.032-.068.034c-.458.24-.746.712-.75 1.227 0 .773.63 1.4 1.408 1.4 4.898.338 9.745-1.16 13.587-4.2.017-.018.02-.037.037-.054 1.743-1.546 2.342-4.004 1.505-6.172-.838-2.167-2.938-3.593-5.273-3.58zM44.19.8c-1.028-1.017-2.67-1.074-3.767-.13L17.808 20.28c-.576.5-.918 1.217-.944 1.977-.026.76.266 1.498.806 2.037l2.906 2.887c.518.513 1.22.802 1.952.803h.093c.765-.026 1.485-.365 1.99-.938L44.32 4.552c.954-1.09.898-2.728-.13-3.75z" fill-rule="nonzero" fill="#FFF"/></svg>
