<svg width="30" height="42" viewBox="0 0 30 42" xmlns="http://www.w3.org/2000/svg"><g fill="#FFF" fill-rule="evenodd"><path d="M10.622 38.457v2.657c0 .49.386.886.86.886.477 0 .862-.397.862-.886v-2.657c0-.49-.385-.886-.86-.886-.476 0-.862.398-.862.887M17.656 38.457v2.657c0 .49.385.886.86.886.476 0 .862-.397.862-.886v-2.657c0-.49-.386-.886-.86-.886-.477 0-.862.398-.862.887M14.067 38.43v.856c0 .473.386.857.86.857.477 0 .862-.384.862-.857v-.857c0-.475-.386-.86-.862-.86-.475 0-.86.385-.86.86M.963 32.227c.262.135.545.202.827.202.36 0 .72-.11 1.026-.324l4.79-3.33c.108.172.2.35.316.52.112.166.215.335.317.504H21.76c.106-.176.214-.352.33-.526.11-.163.2-.332.303-.497l4.79 3.33c.306.213.665.322 1.025.322.282 0 .565-.068.826-.203.595-.308.964-.912.964-1.578V27.12c0-6.21-3.34-9.27-4.462-10.125-.32-5.584-3.054-11.038-8.022-15.167L15.566.205c-.327-.273-.805-.273-1.133 0l-1.95 1.624C7.52 5.956 4.786 11.41 4.467 16.993 3.346 17.844 0 20.904 0 27.122v3.527c0 .665.37 1.27.963 1.577zm27.272-5.105l-.04 3.547-4.913-3.416c.638-1.218 1.15-2.502 1.525-3.823.188-.66.343-1.33.463-2.007.11-.625.067-1.407.275-1.993.83.6 1.426 1.958 1.8 2.874.625 1.526.89 3.177.89 4.818zM15 7.888c1.946 0 3.53 1.573 3.53 3.506 0 1.933-1.584 3.506-3.53 3.506-1.947 0-3.53-1.573-3.53-3.506 0-1.933 1.583-3.506 3.53-3.506zm0 10.518c1.946 0 3.53 1.572 3.53 3.506 0 1.932-1.584 3.506-3.53 3.506-1.947 0-3.53-1.574-3.53-3.506 0-1.934 1.583-3.506 3.53-3.506zM1.765 27.122c0-1.64.266-3.292.89-4.818.374-.917.97-2.274 1.8-2.874.184.52.147 1.213.24 1.77.104.63.24 1.255.403 1.873.383 1.445.927 2.85 1.62 4.176l-4.953 3.4V27.12z"/><path d="M15 23.714c.99 0 1.794-.8 1.794-1.785 0-.986-.804-1.787-1.794-1.787s-1.794.8-1.794 1.786c0 .983.804 1.784 1.794 1.784M15 13.143c.99 0 1.794-.8 1.794-1.786 0-.985-.804-1.786-1.794-1.786s-1.794.802-1.794 1.787c0 .985.804 1.786 1.794 1.786M20.197 35.833v-.978c0-1.183.21-2.325.616-3.426H9.043c.404 1.095.614 2.24.614 3.424v.98c0 .486.393.88.878.88h8.783c.485 0 .88-.394.88-.88"/></g></svg>
