<svg width="59" height="54" viewBox="0 0 59 54" xmlns="http://www.w3.org/2000/svg"><g stroke-width="3" stroke="#FFF" fill="#FFF" fill-rule="evenodd"><path d="M31.926 2.29C18.22 2.29 7.068 13.47 7.072 27.15c-.013.214-.135 3.835.893 7.734l-3.35-1.955c-.833-.488-1.89-.21-2.38.624-.48.83-.202 1.9.63 2.387l7.842 4.59c.018.007.034.007.05.015.085.047.17.077.262.11.058.022.118.043.18.06.077.016.148.02.223.03.055.003.11.02.165.02.03 0 .054-.012.09-.012.028 0 .053.004.083.004.043-.004.08-.026.123-.03.084-.017.164-.034.245-.06.066-.025.134-.05.197-.08.072-.038.14-.076.207-.118.063-.043.122-.085.177-.132.06-.05.112-.11.167-.168.05-.055.097-.115.14-.178.02-.033.054-.06.075-.093.013-.03.013-.06.026-.085.024-.05.062-.093.084-.144l3.116-7.747c.363-.896-.067-1.91-.955-2.274-.894-.356-1.905.072-2.267.967l-1.6 3.98c-1.07-3.59-.948-7.275-.944-7.377 0-11.825 9.587-21.44 21.374-21.44 11.792 0 21.38 9.615 21.38 21.44 0 11.822-9.588 21.437-21.38 21.437-.96 0-1.74.782-1.74 1.745 0 .963.78 1.745 1.74 1.745 13.708 0 24.86-11.183 24.86-24.927 0-13.748-11.152-24.93-24.86-24.93z"/><path d="M31.25 30.98c.183.077.37.104.564.116.04 0 .077.022.116.022.213 0 .415-.047.606-.116.056-.02.108-.048.16-.073.146-.073.28-.16.406-.27.03-.026.065-.034.096-.06l11.144-11.027c.7-.69.7-1.806 0-2.498-.696-.688-1.825-.688-2.525 0L31.515 27.263l-9.246-3.828c-.914-.377-1.956.047-2.337.945-.38.903.048 1.938.956 2.315L31.24 30.98h.01z"/></g></svg>
